<svg width="70" height="70" viewBox="0 0 70 70" fill="none" xmlns="http://www.w3.org/2000/svg">
<g filter="url(#filter0_i_134_131)">
<path d="M70 44.509C70 64.5315 60.1939 70 35.0516 70C9.90939 70 0 56.6009 0 36.5785C0 16.556 11.3509 0 32.8469 1.0101e-09C58.4145 3.96526 70 24.4866 70 44.509Z" fill="#EFC49C"/>
</g>
<path d="M28.6992 43.175C30.8159 41.475 32.4742 40.0833 33.6742 39C34.8742 37.9 35.8826 36.7583 36.6992 35.575C37.5326 34.375 37.9492 33.2 37.9492 32.05C37.9492 30.9667 37.6826 30.1167 37.1492 29.5C36.6326 28.8667 35.7909 28.55 34.6242 28.55C33.4909 28.55 32.6076 28.9083 31.9742 29.625C31.3576 30.325 31.0242 31.2667 30.9742 32.45H28.7742C28.8409 30.5833 29.4076 29.1417 30.4742 28.125C31.5409 27.1083 32.9159 26.6 34.5992 26.6C36.3159 26.6 37.6742 27.075 38.6742 28.025C39.6909 28.975 40.1992 30.2833 40.1992 31.95C40.1992 33.3333 39.7826 34.6833 38.9492 36C38.1326 37.3 37.1992 38.45 36.1492 39.45C35.0992 40.4333 33.7576 41.5833 32.1242 42.9H40.7242V44.8H28.6992V43.175Z" fill="white"/>
<defs>
<filter id="filter0_i_134_131" x="0" y="0" width="70" height="74" filterUnits="userSpaceOnUse" color-interpolation-filters="sRGB">
<feFlood flood-opacity="0" result="BackgroundImageFix"/>
<feBlend mode="normal" in="SourceGraphic" in2="BackgroundImageFix" result="shape"/>
<feColorMatrix in="SourceAlpha" type="matrix" values="0 0 0 0 0 0 0 0 0 0 0 0 0 0 0 0 0 0 127 0" result="hardAlpha"/>
<feOffset dy="4"/>
<feGaussianBlur stdDeviation="2"/>
<feComposite in2="hardAlpha" operator="arithmetic" k2="-1" k3="1"/>
<feColorMatrix type="matrix" values="0 0 0 0 0 0 0 0 0 0 0 0 0 0 0 0 0 0 0.25 0"/>
<feBlend mode="normal" in2="shape" result="effect1_innerShadow_134_131"/>
</filter>
</defs>
</svg>
