<svg width="70" height="70" viewBox="0 0 70 70" fill="none" xmlns="http://www.w3.org/2000/svg">
<g filter="url(#filter0_i_134_164)">
<path d="M44.509 0C64.5315 0 70 9.80609 70 34.9484C70 60.0906 56.6009 70 36.5785 70C16.556 70 -1.0101e-09 58.6491 0 37.1531C3.96526 11.5855 24.4866 0 44.509 0Z" fill="#E797C7"/>
</g>
<path d="M28.7533 31.475C28.87 29.9417 29.4617 28.7417 30.5283 27.875C31.595 27.0083 32.9783 26.575 34.6783 26.575C35.8117 26.575 36.7867 26.7833 37.6033 27.2C38.4367 27.6 39.0617 28.15 39.4783 28.85C39.9117 29.55 40.1283 30.3417 40.1283 31.225C40.1283 32.2583 39.8283 33.15 39.2283 33.9C38.645 34.65 37.8783 35.1333 36.9283 35.35V35.475C38.0117 35.7417 38.87 36.2667 39.5033 37.05C40.1367 37.8333 40.4533 38.8583 40.4533 40.125C40.4533 41.075 40.2367 41.9333 39.8033 42.7C39.37 43.45 38.72 44.0417 37.8533 44.475C36.9867 44.9083 35.945 45.125 34.7283 45.125C32.9617 45.125 31.5117 44.6667 30.3783 43.75C29.245 42.8167 28.6117 41.5 28.4783 39.8H30.6783C30.795 40.8 31.2033 41.6167 31.9033 42.25C32.6033 42.8833 33.5367 43.2 34.7033 43.2C35.87 43.2 36.7533 42.9 37.3533 42.3C37.97 41.6833 38.2783 40.8917 38.2783 39.925C38.2783 38.675 37.8617 37.775 37.0283 37.225C36.195 36.675 34.9367 36.4 33.2533 36.4H32.6783V34.5H33.2783C34.8117 34.4833 35.97 34.2333 36.7533 33.75C37.5367 33.25 37.9283 32.4833 37.9283 31.45C37.9283 30.5667 37.6367 29.8583 37.0533 29.325C36.4867 28.7917 35.67 28.525 34.6033 28.525C33.57 28.525 32.7367 28.7917 32.1033 29.325C31.47 29.8583 31.095 30.575 30.9783 31.475H28.7533Z" fill="white"/>
<defs>
<filter id="filter0_i_134_164" x="0" y="0" width="70" height="74" filterUnits="userSpaceOnUse" color-interpolation-filters="sRGB">
<feFlood flood-opacity="0" result="BackgroundImageFix"/>
<feBlend mode="normal" in="SourceGraphic" in2="BackgroundImageFix" result="shape"/>
<feColorMatrix in="SourceAlpha" type="matrix" values="0 0 0 0 0 0 0 0 0 0 0 0 0 0 0 0 0 0 127 0" result="hardAlpha"/>
<feOffset dy="4"/>
<feGaussianBlur stdDeviation="3.5"/>
<feComposite in2="hardAlpha" operator="arithmetic" k2="-1" k3="1"/>
<feColorMatrix type="matrix" values="0 0 0 0 0 0 0 0 0 0 0 0 0 0 0 0 0 0 0.25 0"/>
<feBlend mode="normal" in2="shape" result="effect1_innerShadow_134_164"/>
</filter>
</defs>
</svg>
